<svg xmlns="http://www.w3.org/2000/svg" xmlns:xlink="http://www.w3.org/1999/xlink" zoomAndPan="magnify" preserveAspectRatio="xMidYMid meet" version="1.0" viewBox="117.59 117.59 139.81 139.81"><defs><clipPath id="3148921b63"><path d="M 117.59375 117.59375 L 257.40625 117.59375 L 257.40625 257.40625 L 117.59375 257.40625 Z M 117.59375 117.59375 " clip-rule="nonzero"/></clipPath><clipPath id="aed131dda7"><path d="M 187.5 117.59375 C 148.890625 117.59375 117.59375 148.890625 117.59375 187.5 C 117.59375 226.109375 148.890625 257.40625 187.5 257.40625 C 226.109375 257.40625 257.40625 226.109375 257.40625 187.5 C 257.40625 148.890625 226.109375 117.59375 187.5 117.59375 Z M 187.5 117.59375 " clip-rule="nonzero"/></clipPath><clipPath id="47f984068b"><path d="M 142.25 152.070312 L 232.636719 152.070312 L 232.636719 229.324219 L 142.25 229.324219 Z M 142.25 152.070312 " clip-rule="nonzero"/></clipPath><clipPath id="839aa9ef16"><path d="M 208 145.324219 L 214 145.324219 L 214 162 L 208 162 Z M 208 145.324219 " clip-rule="nonzero"/></clipPath></defs><g clip-path="url(#3148921b63)"><g clip-path="url(#aed131dda7)"><path fill="#00bf63" d="M 117.59375 117.59375 L 257.40625 117.59375 L 257.40625 257.40625 L 117.59375 257.40625 Z M 117.59375 117.59375 " fill-opacity="1" fill-rule="nonzero"/></g></g><path fill="#ffffff" d="M 168.714844 155.164062 L 205.628906 155.164062 C 205.96875 155.164062 206.246094 154.886719 206.246094 154.546875 L 206.246094 152.691406 C 206.246094 152.351562 205.96875 152.074219 205.628906 152.074219 L 168.714844 152.074219 C 168.375 152.074219 168.097656 152.351562 168.097656 152.691406 L 168.097656 154.546875 C 168.097656 154.886719 168.375 155.164062 168.714844 155.164062 " fill-opacity="1" fill-rule="nonzero"/><g clip-path="url(#47f984068b)"><path fill="#ffffff" d="M 223.023438 226.589844 L 151.863281 226.589844 C 148.257812 226.589844 145.335938 223.667969 145.335938 220.0625 L 145.335938 176.632812 L 229.546875 176.632812 L 229.546875 220.0625 C 229.546875 223.667969 226.628906 226.589844 223.023438 226.589844 Z M 223.023438 152.074219 L 216.121094 152.074219 C 215.78125 152.074219 215.503906 152.351562 215.503906 152.691406 L 215.503906 154.542969 C 215.503906 154.886719 215.78125 155.164062 216.121094 155.164062 L 223.023438 155.164062 C 226.621094 155.164062 229.546875 158.085938 229.546875 161.691406 L 229.546875 173.546875 L 145.335938 173.546875 L 145.335938 161.691406 C 145.335938 158.085938 148.265625 155.164062 151.863281 155.164062 L 158.21875 155.164062 C 158.5625 155.164062 158.839844 154.886719 158.839844 154.542969 L 158.839844 152.691406 C 158.839844 152.351562 158.5625 152.074219 158.21875 152.074219 L 151.863281 152.074219 C 146.566406 152.074219 142.25 156.390625 142.25 161.691406 L 142.25 220.0625 C 142.25 225.351562 146.578125 229.675781 151.863281 229.675781 L 223.023438 229.675781 C 228.308594 229.675781 232.636719 225.351562 232.636719 220.0625 L 232.636719 161.691406 C 232.636719 156.390625 228.320312 152.074219 223.023438 152.074219 " fill-opacity="1" fill-rule="nonzero"/></g><path fill="#ffffff" d="M 163.46875 162.675781 C 165 162.675781 166.246094 161.433594 166.246094 159.898438 L 166.246094 148.867188 C 166.246094 147.328125 165 146.089844 163.46875 146.089844 C 161.929688 146.089844 160.691406 147.328125 160.691406 148.867188 L 160.691406 159.898438 C 160.691406 161.433594 161.929688 162.675781 163.46875 162.675781 " fill-opacity="1" fill-rule="nonzero"/><g clip-path="url(#839aa9ef16)"><path fill="#ffffff" d="M 210.875 161.914062 C 212.40625 161.914062 213.652344 160.667969 213.652344 159.136719 L 213.652344 148.101562 C 213.652344 146.570312 212.40625 145.324219 210.875 145.324219 C 209.339844 145.324219 208.097656 146.570312 208.097656 148.101562 L 208.097656 159.136719 C 208.097656 160.667969 209.339844 161.914062 210.875 161.914062 " fill-opacity="1" fill-rule="nonzero"/></g></svg>