<svg xmlns="http://www.w3.org/2000/svg" xmlns:xlink="http://www.w3.org/1999/xlink" zoomAndPan="magnify" preserveAspectRatio="xMidYMid meet" version="1.0" viewBox="13.05 13.05 348.75 348.75"><defs><clipPath id="be51e4038a"><path d="M 13.046875 13.046875 L 361.796875 13.046875 L 361.796875 361.796875 L 13.046875 361.796875 Z M 13.046875 13.046875 " clip-rule="nonzero"/></clipPath><clipPath id="132152d91e"><path d="M 335.113281 23.167969 L 339.886719 23.167969 L 339.886719 27.945312 L 335.113281 27.945312 Z M 335.113281 23.167969 " clip-rule="nonzero"/></clipPath><clipPath id="5a322dcd49"><path d="M 337.5 23.167969 C 336.179688 23.167969 335.113281 24.238281 335.113281 25.558594 C 335.113281 26.875 336.179688 27.945312 337.5 27.945312 C 338.820312 27.945312 339.886719 26.875 339.886719 25.558594 C 339.886719 24.238281 338.820312 23.167969 337.5 23.167969 Z M 337.5 23.167969 " clip-rule="nonzero"/></clipPath></defs><g clip-path="url(#be51e4038a)"><path fill="#00b389" d="M 361.792969 187.417969 C 361.792969 190.273438 361.722656 193.125 361.582031 195.976562 C 361.441406 198.824219 361.230469 201.671875 360.953125 204.511719 C 360.671875 207.351562 360.324219 210.183594 359.90625 213.003906 C 359.484375 215.828125 359 218.640625 358.441406 221.4375 C 357.886719 224.238281 357.257812 227.019531 356.566406 229.789062 C 355.871094 232.558594 355.113281 235.304688 354.285156 238.039062 C 353.457031 240.769531 352.558594 243.476562 351.597656 246.164062 C 350.636719 248.851562 349.609375 251.511719 348.519531 254.148438 C 347.425781 256.785156 346.269531 259.394531 345.050781 261.972656 C 343.832031 264.554688 342.546875 267.101562 341.203125 269.617188 C 339.855469 272.136719 338.449219 274.617188 336.984375 277.066406 C 335.515625 279.511719 333.992188 281.921875 332.40625 284.296875 C 330.820312 286.667969 329.175781 289 327.476562 291.292969 C 325.777344 293.585938 324.023438 295.835938 322.210938 298.039062 C 320.402344 300.246094 318.539062 302.40625 316.621094 304.519531 C 314.703125 306.636719 312.738281 308.703125 310.71875 310.71875 C 308.703125 312.738281 306.636719 314.703125 304.519531 316.621094 C 302.40625 318.539062 300.246094 320.402344 298.039062 322.210938 C 295.835938 324.023438 293.585938 325.777344 291.292969 327.476562 C 289 329.175781 286.667969 330.820312 284.296875 332.40625 C 281.921875 333.992188 279.511719 335.515625 277.066406 336.984375 C 274.617188 338.449219 272.136719 339.855469 269.617188 341.203125 C 267.101562 342.546875 264.554688 343.832031 261.972656 345.050781 C 259.394531 346.269531 256.785156 347.425781 254.148438 348.519531 C 251.511719 349.609375 248.851562 350.636719 246.164062 351.597656 C 243.476562 352.558594 240.769531 353.457031 238.039062 354.285156 C 235.304688 355.113281 232.558594 355.871094 229.789062 356.566406 C 227.019531 357.257812 224.238281 357.886719 221.4375 358.441406 C 218.640625 359 215.828125 359.484375 213.003906 359.90625 C 210.183594 360.324219 207.351562 360.671875 204.511719 360.953125 C 201.671875 361.230469 198.824219 361.441406 195.976562 361.582031 C 193.125 361.722656 190.273438 361.792969 187.417969 361.792969 C 184.566406 361.792969 181.714844 361.722656 178.863281 361.582031 C 176.011719 361.441406 173.167969 361.230469 170.328125 360.953125 C 167.488281 360.671875 164.65625 360.324219 161.835938 359.90625 C 159.011719 359.484375 156.199219 359 153.402344 358.441406 C 150.601562 357.886719 147.820312 357.257812 145.050781 356.566406 C 142.28125 355.871094 139.53125 355.113281 136.800781 354.285156 C 134.070312 353.457031 131.363281 352.558594 128.675781 351.597656 C 125.988281 350.636719 123.328125 349.609375 120.691406 348.519531 C 118.054688 347.425781 115.445312 346.269531 112.867188 345.050781 C 110.285156 343.832031 107.738281 342.546875 105.222656 341.203125 C 102.703125 339.855469 100.222656 338.449219 97.773438 336.984375 C 95.328125 335.515625 92.917969 333.992188 90.542969 332.40625 C 88.171875 330.820312 85.839844 329.175781 83.546875 327.476562 C 81.253906 325.777344 79.003906 324.023438 76.800781 322.210938 C 74.59375 320.402344 72.433594 318.539062 70.320312 316.621094 C 68.203125 314.703125 66.136719 312.738281 64.121094 310.71875 C 62.101562 308.703125 60.136719 306.636719 58.21875 304.519531 C 56.300781 302.40625 54.4375 300.246094 52.628906 298.039062 C 50.816406 295.835938 49.0625 293.585938 47.363281 291.292969 C 45.664062 289 44.019531 286.667969 42.433594 284.296875 C 40.847656 281.921875 39.324219 279.511719 37.855469 277.066406 C 36.386719 274.617188 34.980469 272.136719 33.636719 269.617188 C 32.292969 267.101562 31.007812 264.554688 29.789062 261.972656 C 28.570312 259.394531 27.414062 256.785156 26.320312 254.148438 C 25.230469 251.511719 24.203125 248.851562 23.242188 246.164062 C 22.277344 243.476562 21.382812 240.769531 20.554688 238.039062 C 19.726562 235.304688 18.964844 232.558594 18.273438 229.789062 C 17.578125 227.019531 16.953125 224.238281 16.398438 221.4375 C 15.839844 218.640625 15.351562 215.828125 14.933594 213.003906 C 14.515625 210.183594 14.167969 207.351562 13.886719 204.511719 C 13.605469 201.671875 13.398438 198.824219 13.257812 195.976562 C 13.117188 193.125 13.046875 190.273438 13.046875 187.417969 C 13.046875 184.566406 13.117188 181.714844 13.257812 178.863281 C 13.398438 176.011719 13.605469 173.167969 13.886719 170.328125 C 14.167969 167.488281 14.515625 164.65625 14.933594 161.835938 C 15.351562 159.011719 15.839844 156.199219 16.398438 153.402344 C 16.953125 150.601562 17.578125 147.820312 18.273438 145.050781 C 18.964844 142.28125 19.726562 139.53125 20.554688 136.800781 C 21.382812 134.070312 22.277344 131.363281 23.242188 128.675781 C 24.203125 125.988281 25.230469 123.328125 26.320312 120.691406 C 27.414062 118.054688 28.570312 115.445312 29.789062 112.867188 C 31.007812 110.285156 32.292969 107.738281 33.636719 105.222656 C 34.980469 102.703125 36.386719 100.222656 37.855469 97.773438 C 39.324219 95.328125 40.847656 92.917969 42.433594 90.542969 C 44.019531 88.171875 45.664062 85.839844 47.363281 83.546875 C 49.0625 81.253906 50.816406 79.003906 52.628906 76.800781 C 54.4375 74.59375 56.300781 72.433594 58.21875 70.320312 C 60.136719 68.203125 62.101562 66.136719 64.121094 64.121094 C 66.136719 62.101562 68.203125 60.136719 70.320312 58.21875 C 72.433594 56.300781 74.59375 54.4375 76.800781 52.628906 C 79.003906 50.816406 81.253906 49.0625 83.546875 47.363281 C 85.839844 45.664062 88.171875 44.019531 90.542969 42.433594 C 92.917969 40.847656 95.328125 39.324219 97.773438 37.855469 C 100.222656 36.386719 102.703125 34.980469 105.222656 33.636719 C 107.738281 32.292969 110.285156 31.007812 112.867188 29.789062 C 115.445312 28.570312 118.054688 27.414062 120.691406 26.320312 C 123.328125 25.230469 125.988281 24.203125 128.675781 23.242188 C 131.363281 22.277344 134.070312 21.382812 136.800781 20.554688 C 139.53125 19.726562 142.28125 18.964844 145.050781 18.273438 C 147.820312 17.578125 150.601562 16.953125 153.402344 16.398438 C 156.199219 15.839844 159.011719 15.351562 161.835938 14.933594 C 164.65625 14.515625 167.488281 14.167969 170.328125 13.886719 C 173.167969 13.605469 176.011719 13.398438 178.863281 13.257812 C 181.714844 13.117188 184.566406 13.046875 187.417969 13.046875 C 190.273438 13.046875 193.125 13.117188 195.976562 13.257812 C 198.824219 13.398438 201.671875 13.605469 204.511719 13.886719 C 207.351562 14.167969 210.183594 14.515625 213.003906 14.933594 C 215.828125 15.351562 218.640625 15.839844 221.4375 16.398438 C 224.238281 16.953125 227.019531 17.578125 229.789062 18.273438 C 232.558594 18.964844 235.304688 19.726562 238.039062 20.554688 C 240.769531 21.382812 243.476562 22.277344 246.164062 23.242188 C 248.851562 24.203125 251.511719 25.230469 254.148438 26.320312 C 256.785156 27.414062 259.394531 28.570312 261.972656 29.789062 C 264.554688 31.007812 267.101562 32.292969 269.617188 33.636719 C 272.136719 34.980469 274.617188 36.386719 277.066406 37.855469 C 279.511719 39.324219 281.921875 40.847656 284.296875 42.433594 C 286.667969 44.019531 289 45.664062 291.292969 47.363281 C 293.585938 49.0625 295.835938 50.816406 298.039062 52.628906 C 300.246094 54.4375 302.40625 56.300781 304.519531 58.21875 C 306.636719 60.136719 308.703125 62.101562 310.71875 64.121094 C 312.738281 66.136719 314.703125 68.203125 316.621094 70.320312 C 318.539062 72.433594 320.402344 74.59375 322.210938 76.800781 C 324.023438 79.003906 325.777344 81.253906 327.476562 83.546875 C 329.175781 85.839844 330.820312 88.171875 332.40625 90.542969 C 333.992188 92.917969 335.515625 95.328125 336.984375 97.773438 C 338.449219 100.222656 339.855469 102.703125 341.203125 105.222656 C 342.546875 107.738281 343.832031 110.285156 345.050781 112.867188 C 346.269531 115.445312 347.425781 118.054688 348.519531 120.691406 C 349.609375 123.328125 350.636719 125.988281 351.597656 128.675781 C 352.558594 131.363281 353.457031 134.070312 354.285156 136.800781 C 355.113281 139.53125 355.871094 142.28125 356.566406 145.050781 C 357.257812 147.820312 357.886719 150.601562 358.441406 153.402344 C 359 156.199219 359.484375 159.011719 359.90625 161.835938 C 360.324219 164.65625 360.671875 167.488281 360.953125 170.328125 C 361.230469 173.167969 361.441406 176.011719 361.582031 178.863281 C 361.722656 181.714844 361.792969 184.566406 361.792969 187.417969 Z M 361.792969 187.417969 " fill-opacity="1" fill-rule="nonzero"/></g><path fill="#fefefe" d="M 229.515625 298.925781 C 228.847656 298.925781 228.175781 298.671875 227.664062 298.160156 L 118.773438 189.269531 C 117.753906 188.246094 117.753906 186.59375 118.773438 185.570312 L 227.664062 76.679688 C 228.6875 75.65625 230.34375 75.65625 231.363281 76.679688 L 256.0625 101.378906 C 257.082031 102.398438 257.085938 104.054688 256.0625 105.074219 L 173.71875 187.417969 L 256.066406 269.765625 C 257.085938 270.789062 257.085938 272.441406 256.066406 273.464844 L 231.363281 298.164062 C 230.851562 298.671875 230.183594 298.925781 229.515625 298.925781 Z M 124.320312 187.417969 L 229.515625 292.613281 L 250.519531 271.613281 L 168.175781 189.269531 C 167.152344 188.246094 167.152344 186.59375 168.175781 185.574219 L 250.519531 103.226562 L 229.515625 82.222656 L 124.320312 187.421875 Z M 124.320312 187.417969 " fill-opacity="1" fill-rule="evenodd"/><g clip-path="url(#132152d91e)"><g clip-path="url(#5a322dcd49)"><path fill="#fefefe" d="M 335.113281 23.167969 L 339.886719 23.167969 L 339.886719 27.945312 L 335.113281 27.945312 Z M 335.113281 23.167969 " fill-opacity="1" fill-rule="nonzero"/></g></g></svg>