<svg xmlns="http://www.w3.org/2000/svg" xmlns:xlink="http://www.w3.org/1999/xlink" zoomAndPan="magnify" preserveAspectRatio="xMidYMid meet" version="1.0" viewBox="13.15 82.02 348.75 210.92"><defs><g/><clipPath id="765e9f3944"><path d="M 13.148438 181 L 73 181 L 73 205 L 13.148438 205 Z M 13.148438 181 " clip-rule="nonzero"/></clipPath><clipPath id="d5ccbe2b4e"><path d="M 208 83 L 361.898438 83 L 361.898438 292.765625 L 208 292.765625 Z M 208 83 " clip-rule="nonzero"/></clipPath><clipPath id="685bee4e73"><path d="M 93 82.015625 L 330 82.015625 L 330 283 L 93 283 Z M 93 82.015625 " clip-rule="nonzero"/></clipPath></defs><g clip-path="url(#765e9f3944)"><path fill="#38b6ff" d="M 72.859375 192.589844 C 72.859375 186.277344 67.742188 181.15625 61.425781 181.15625 L 24.585938 181.15625 C 18.273438 181.15625 13.152344 186.277344 13.152344 192.589844 C 13.152344 198.90625 18.273438 204.023438 24.585938 204.023438 L 61.425781 204.023438 C 67.742188 204.023438 72.859375 198.90625 72.859375 192.589844 " fill-opacity="1" fill-rule="nonzero"/></g><path fill="#38b6ff" d="M 98.230469 226.890625 L 76.816406 226.890625 C 70.503906 226.890625 65.382812 232.007812 65.382812 238.324219 C 65.382812 244.640625 70.503906 249.757812 76.816406 249.757812 L 98.230469 249.757812 C 104.546875 249.757812 109.664062 244.640625 109.664062 238.324219 C 109.664062 232.007812 104.546875 226.890625 98.230469 226.890625 " fill-opacity="1" fill-rule="nonzero"/><g clip-path="url(#d5ccbe2b4e)"><path fill="#38b6ff" d="M 273.1875 83.390625 C 321.535156 108.613281 343.109375 167.195312 321.410156 218.238281 C 302.121094 263.613281 254.8125 288.5 208.21875 281.300781 C 222.664062 288.742188 239.042969 292.9375 256.402344 292.9375 C 314.636719 292.9375 361.839844 245.730469 361.839844 187.496094 C 361.839844 134.976562 323.441406 91.429688 273.1875 83.390625 " fill-opacity="1" fill-rule="nonzero"/></g><g clip-path="url(#685bee4e73)"><path fill="#38b6ff" d="M 249.210938 196.824219 C 228.40625 189.832031 214.214844 180.109375 214.214844 161.253906 C 214.214844 144.144531 226.265625 130.730469 247.070312 126.648438 L 247.070312 108.175781 L 266.121094 108.175781 L 266.121094 125.289062 C 279.148438 125.867188 287.898438 128.585938 294.3125 131.703125 L 288.675781 153.671875 C 283.621094 151.53125 274.679688 147.058594 260.679688 147.058594 C 248.042969 147.058594 243.960938 152.503906 243.960938 157.945312 C 243.960938 164.359375 250.765625 168.445312 267.289062 174.667969 C 290.421875 182.832031 299.753906 193.523438 299.753906 211.023438 C 299.753906 228.324219 287.507812 243.101562 265.148438 246.988281 L 265.148438 266.816406 L 246.097656 266.816406 L 246.097656 248.347656 C 233.074219 247.761719 220.4375 244.265625 213.050781 239.984375 L 218.882812 217.246094 C 227.046875 221.710938 238.519531 225.796875 251.152344 225.796875 C 262.234375 225.796875 269.816406 221.519531 269.816406 213.742188 C 269.816406 206.351562 263.59375 201.6875 249.210938 196.824219 Z M 321.410156 218.238281 C 343.109375 167.195312 321.535156 108.613281 273.1875 83.390625 C 267.722656 82.519531 262.117188 82.058594 256.402344 82.058594 C 227.484375 82.058594 201.300781 93.707031 182.25 112.558594 L 195.363281 112.558594 C 201.675781 112.558594 206.796875 117.679688 206.796875 123.996094 C 206.796875 130.308594 201.675781 135.425781 195.363281 135.425781 L 127.988281 135.425781 C 121.675781 135.425781 116.558594 140.542969 116.558594 146.859375 C 116.558594 153.175781 121.675781 158.292969 127.988281 158.292969 L 171.945312 158.292969 C 178.261719 158.292969 183.378906 163.410156 183.378906 169.726562 C 183.378906 176.039062 178.261719 181.15625 171.945312 181.15625 L 104.570312 181.15625 C 98.257812 181.15625 93.140625 186.277344 93.140625 192.589844 C 93.140625 198.90625 98.257812 204.023438 104.570312 204.023438 L 183.984375 204.023438 C 190.296875 204.023438 195.417969 209.144531 195.417969 215.460938 C 195.417969 221.773438 190.296875 226.890625 183.984375 226.890625 L 135.105469 226.890625 C 128.792969 226.890625 123.671875 232.007812 123.671875 238.324219 C 123.671875 244.640625 128.792969 249.757812 135.105469 249.757812 L 171.308594 249.757812 C 180.960938 262.929688 193.597656 273.773438 208.21875 281.300781 C 254.8125 288.5 302.121094 263.613281 321.410156 218.238281 " fill-opacity="1" fill-rule="nonzero"/></g><g fill="#38b6ff" fill-opacity="1"><g transform="translate(288.589505, 170.479357)"><g><path d="M 2.03125 0 L 1.546875 0 L 1.546875 -1.625 L 0.109375 -4.15625 L 0.640625 -4.15625 L 1.765625 -2.203125 L 1.828125 -2.203125 L 2.9375 -4.15625 L 3.46875 -4.15625 L 2.03125 -1.625 Z M 2.03125 0 "/></g></g></g><g fill="#38b6ff" fill-opacity="1"><g transform="translate(292.153175, 170.479357)"><g><path d="M 1.796875 0.0625 C 1.503906 0.0625 1.25 0 1.03125 -0.125 C 0.8125 -0.25 0.640625 -0.429688 0.515625 -0.671875 C 0.398438 -0.921875 0.34375 -1.21875 0.34375 -1.5625 C 0.34375 -1.90625 0.398438 -2.195312 0.515625 -2.4375 C 0.640625 -2.6875 0.8125 -2.875 1.03125 -3 C 1.25 -3.125 1.503906 -3.1875 1.796875 -3.1875 C 2.085938 -3.1875 2.34375 -3.125 2.5625 -3 C 2.78125 -2.875 2.945312 -2.6875 3.0625 -2.4375 C 3.1875 -2.195312 3.25 -1.90625 3.25 -1.5625 C 3.25 -1.21875 3.1875 -0.921875 3.0625 -0.671875 C 2.945312 -0.429688 2.78125 -0.25 2.5625 -0.125 C 2.34375 0 2.085938 0.0625 1.796875 0.0625 Z M 1.796875 -0.359375 C 2.109375 -0.359375 2.347656 -0.453125 2.515625 -0.640625 C 2.679688 -0.835938 2.765625 -1.144531 2.765625 -1.5625 C 2.765625 -1.976562 2.679688 -2.285156 2.515625 -2.484375 C 2.347656 -2.679688 2.109375 -2.78125 1.796875 -2.78125 C 1.484375 -2.78125 1.242188 -2.679688 1.078125 -2.484375 C 0.910156 -2.285156 0.828125 -1.976562 0.828125 -1.5625 C 0.828125 -1.144531 0.910156 -0.835938 1.078125 -0.640625 C 1.242188 -0.453125 1.484375 -0.359375 1.796875 -0.359375 Z M 1.796875 -0.359375 "/></g></g></g><g fill="#38b6ff" fill-opacity="1"><g transform="translate(295.742357, 170.479357)"><g><path d="M 1.546875 0.0625 C 1.191406 0.0625 0.925781 -0.03125 0.75 -0.21875 C 0.582031 -0.40625 0.5 -0.679688 0.5 -1.046875 L 0.5 -3.125 L 0.953125 -3.125 L 0.953125 -1.0625 C 0.953125 -0.582031 1.175781 -0.34375 1.625 -0.34375 C 1.914062 -0.34375 2.140625 -0.4375 2.296875 -0.625 C 2.460938 -0.8125 2.546875 -1.113281 2.546875 -1.53125 L 2.546875 -3.125 L 3.015625 -3.125 L 3.015625 0 L 2.578125 0 L 2.578125 -0.484375 L 2.515625 -0.5 C 2.410156 -0.3125 2.28125 -0.171875 2.125 -0.078125 C 1.976562 0.015625 1.785156 0.0625 1.546875 0.0625 Z M 1.546875 0.0625 "/></g></g></g><g fill="#38b6ff" fill-opacity="1"><g transform="translate(299.294686, 170.479357)"><g><path d="M 0.546875 0 L 0.546875 -3.125 L 0.984375 -3.125 L 0.984375 -2.640625 L 1.046875 -2.625 C 1.191406 -2.976562 1.46875 -3.15625 1.875 -3.15625 C 2.082031 -3.15625 2.238281 -3.117188 2.34375 -3.046875 L 2.234375 -2.65625 L 2.171875 -2.640625 C 2.054688 -2.703125 1.925781 -2.734375 1.78125 -2.734375 C 1.53125 -2.734375 1.335938 -2.640625 1.203125 -2.453125 C 1.066406 -2.265625 1 -1.957031 1 -1.53125 L 1 0 Z M 0.546875 0 "/></g></g></g><g fill="#38b6ff" fill-opacity="1"><g transform="translate(301.710155, 170.479357)"><g/></g></g><g fill="#38b6ff" fill-opacity="1"><g transform="translate(303.133354, 170.479357)"><g><path d="M 0.546875 1.265625 L 0.546875 -3.125 L 1 -3.125 L 1 -2.65625 L 1.0625 -2.65625 C 1.300781 -3.007812 1.644531 -3.1875 2.09375 -3.1875 C 2.351562 -3.1875 2.578125 -3.125 2.765625 -3 C 2.960938 -2.882812 3.113281 -2.707031 3.21875 -2.46875 C 3.332031 -2.226562 3.390625 -1.925781 3.390625 -1.5625 C 3.390625 -1.207031 3.332031 -0.90625 3.21875 -0.65625 C 3.101562 -0.414062 2.945312 -0.234375 2.75 -0.109375 C 2.550781 0.00390625 2.320312 0.0625 2.0625 0.0625 C 1.84375 0.0625 1.648438 0.0234375 1.484375 -0.046875 C 1.328125 -0.117188 1.1875 -0.242188 1.0625 -0.421875 L 1 -0.40625 L 1 1.265625 Z M 1.953125 -0.359375 C 2.585938 -0.359375 2.90625 -0.757812 2.90625 -1.5625 C 2.90625 -2.375 2.585938 -2.78125 1.953125 -2.78125 C 1.765625 -2.78125 1.597656 -2.734375 1.453125 -2.640625 C 1.316406 -2.554688 1.207031 -2.425781 1.125 -2.25 C 1.039062 -2.070312 1 -1.84375 1 -1.5625 C 1 -1.289062 1.039062 -1.0625 1.125 -0.875 C 1.207031 -0.695312 1.316406 -0.566406 1.453125 -0.484375 C 1.597656 -0.398438 1.765625 -0.359375 1.953125 -0.359375 Z M 1.953125 -0.359375 "/></g></g></g><g fill="#38b6ff" fill-opacity="1"><g transform="translate(306.86429, 170.479357)"><g><path d="M 1.296875 0.0625 C 0.984375 0.0625 0.738281 -0.015625 0.5625 -0.171875 C 0.394531 -0.335938 0.3125 -0.570312 0.3125 -0.875 C 0.3125 -1.0625 0.347656 -1.21875 0.421875 -1.34375 C 0.503906 -1.46875 0.625 -1.570312 0.78125 -1.65625 C 0.9375 -1.738281 1.144531 -1.800781 1.40625 -1.84375 C 1.632812 -1.875 1.804688 -1.910156 1.921875 -1.953125 C 2.046875 -2.003906 2.128906 -2.0625 2.171875 -2.125 C 2.210938 -2.1875 2.234375 -2.257812 2.234375 -2.34375 C 2.234375 -2.488281 2.179688 -2.597656 2.078125 -2.671875 C 1.984375 -2.742188 1.828125 -2.78125 1.609375 -2.78125 C 1.410156 -2.78125 1.238281 -2.738281 1.09375 -2.65625 C 0.945312 -2.582031 0.8125 -2.46875 0.6875 -2.3125 L 0.640625 -2.3125 L 0.40625 -2.640625 C 0.539062 -2.804688 0.707031 -2.9375 0.90625 -3.03125 C 1.113281 -3.132812 1.347656 -3.1875 1.609375 -3.1875 C 1.984375 -3.1875 2.253906 -3.101562 2.421875 -2.9375 C 2.597656 -2.78125 2.6875 -2.5625 2.6875 -2.28125 L 2.6875 -0.609375 C 2.6875 -0.441406 2.757812 -0.359375 2.90625 -0.359375 C 2.957031 -0.359375 3.003906 -0.363281 3.046875 -0.375 L 3.09375 -0.375 L 3.140625 -0.046875 C 3.109375 -0.0234375 3.0625 -0.0078125 3 0 C 2.945312 0.0078125 2.894531 0.015625 2.84375 0.015625 C 2.664062 0.015625 2.53125 -0.0195312 2.4375 -0.09375 C 2.351562 -0.164062 2.300781 -0.273438 2.28125 -0.421875 L 2.21875 -0.4375 C 2.132812 -0.269531 2.015625 -0.144531 1.859375 -0.0625 C 1.710938 0.0195312 1.523438 0.0625 1.296875 0.0625 Z M 1.390625 -0.3125 C 1.566406 -0.3125 1.71875 -0.347656 1.84375 -0.421875 C 1.96875 -0.503906 2.0625 -0.617188 2.125 -0.765625 C 2.195312 -0.910156 2.234375 -1.082031 2.234375 -1.28125 L 2.234375 -1.671875 L 2.1875 -1.6875 C 2.113281 -1.632812 2.023438 -1.59375 1.921875 -1.5625 C 1.828125 -1.53125 1.691406 -1.5 1.515625 -1.46875 C 1.328125 -1.445312 1.179688 -1.410156 1.078125 -1.359375 C 0.972656 -1.304688 0.894531 -1.238281 0.84375 -1.15625 C 0.800781 -1.082031 0.78125 -0.988281 0.78125 -0.875 C 0.78125 -0.6875 0.832031 -0.546875 0.9375 -0.453125 C 1.050781 -0.359375 1.203125 -0.3125 1.390625 -0.3125 Z M 1.390625 -0.3125 "/></g></g></g><g fill="#38b6ff" fill-opacity="1"><g transform="translate(310.099093, 170.479357)"><g><path d="M 0.546875 0 L 0.546875 -3.125 L 0.984375 -3.125 L 0.984375 -2.640625 L 1.046875 -2.625 C 1.191406 -2.976562 1.46875 -3.15625 1.875 -3.15625 C 2.082031 -3.15625 2.238281 -3.117188 2.34375 -3.046875 L 2.234375 -2.65625 L 2.171875 -2.640625 C 2.054688 -2.703125 1.925781 -2.734375 1.78125 -2.734375 C 1.53125 -2.734375 1.335938 -2.640625 1.203125 -2.453125 C 1.066406 -2.265625 1 -1.957031 1 -1.53125 L 1 0 Z M 0.546875 0 "/></g></g></g><g fill="#38b6ff" fill-opacity="1"><g transform="translate(312.514561, 170.479357)"><g><path d="M 1.296875 0.0625 C 0.984375 0.0625 0.738281 -0.015625 0.5625 -0.171875 C 0.394531 -0.335938 0.3125 -0.570312 0.3125 -0.875 C 0.3125 -1.0625 0.347656 -1.21875 0.421875 -1.34375 C 0.503906 -1.46875 0.625 -1.570312 0.78125 -1.65625 C 0.9375 -1.738281 1.144531 -1.800781 1.40625 -1.84375 C 1.632812 -1.875 1.804688 -1.910156 1.921875 -1.953125 C 2.046875 -2.003906 2.128906 -2.0625 2.171875 -2.125 C 2.210938 -2.1875 2.234375 -2.257812 2.234375 -2.34375 C 2.234375 -2.488281 2.179688 -2.597656 2.078125 -2.671875 C 1.984375 -2.742188 1.828125 -2.78125 1.609375 -2.78125 C 1.410156 -2.78125 1.238281 -2.738281 1.09375 -2.65625 C 0.945312 -2.582031 0.8125 -2.46875 0.6875 -2.3125 L 0.640625 -2.3125 L 0.40625 -2.640625 C 0.539062 -2.804688 0.707031 -2.9375 0.90625 -3.03125 C 1.113281 -3.132812 1.347656 -3.1875 1.609375 -3.1875 C 1.984375 -3.1875 2.253906 -3.101562 2.421875 -2.9375 C 2.597656 -2.78125 2.6875 -2.5625 2.6875 -2.28125 L 2.6875 -0.609375 C 2.6875 -0.441406 2.757812 -0.359375 2.90625 -0.359375 C 2.957031 -0.359375 3.003906 -0.363281 3.046875 -0.375 L 3.09375 -0.375 L 3.140625 -0.046875 C 3.109375 -0.0234375 3.0625 -0.0078125 3 0 C 2.945312 0.0078125 2.894531 0.015625 2.84375 0.015625 C 2.664062 0.015625 2.53125 -0.0195312 2.4375 -0.09375 C 2.351562 -0.164062 2.300781 -0.273438 2.28125 -0.421875 L 2.21875 -0.4375 C 2.132812 -0.269531 2.015625 -0.144531 1.859375 -0.0625 C 1.710938 0.0195312 1.523438 0.0625 1.296875 0.0625 Z M 1.390625 -0.3125 C 1.566406 -0.3125 1.71875 -0.347656 1.84375 -0.421875 C 1.96875 -0.503906 2.0625 -0.617188 2.125 -0.765625 C 2.195312 -0.910156 2.234375 -1.082031 2.234375 -1.28125 L 2.234375 -1.671875 L 2.1875 -1.6875 C 2.113281 -1.632812 2.023438 -1.59375 1.921875 -1.5625 C 1.828125 -1.53125 1.691406 -1.5 1.515625 -1.46875 C 1.328125 -1.445312 1.179688 -1.410156 1.078125 -1.359375 C 0.972656 -1.304688 0.894531 -1.238281 0.84375 -1.15625 C 0.800781 -1.082031 0.78125 -0.988281 0.78125 -0.875 C 0.78125 -0.6875 0.832031 -0.546875 0.9375 -0.453125 C 1.050781 -0.359375 1.203125 -0.3125 1.390625 -0.3125 Z M 1.390625 -0.3125 "/></g></g></g><g fill="#38b6ff" fill-opacity="1"><g transform="translate(315.749364, 170.479357)"><g><path d="M 1.609375 1.328125 C 1.117188 1.328125 0.757812 1.242188 0.53125 1.078125 C 0.300781 0.910156 0.1875 0.691406 0.1875 0.421875 C 0.1875 0.242188 0.238281 0.101562 0.34375 0 C 0.457031 -0.101562 0.613281 -0.175781 0.8125 -0.21875 L 0.8125 -0.28125 C 0.71875 -0.332031 0.644531 -0.394531 0.59375 -0.46875 C 0.539062 -0.539062 0.515625 -0.628906 0.515625 -0.734375 C 0.515625 -0.859375 0.550781 -0.957031 0.625 -1.03125 C 0.707031 -1.101562 0.828125 -1.160156 0.984375 -1.203125 L 0.984375 -1.265625 C 0.640625 -1.441406 0.46875 -1.734375 0.46875 -2.140625 C 0.46875 -2.347656 0.515625 -2.53125 0.609375 -2.6875 C 0.703125 -2.84375 0.832031 -2.960938 1 -3.046875 C 1.175781 -3.140625 1.378906 -3.1875 1.609375 -3.1875 C 1.867188 -3.1875 2.085938 -3.128906 2.265625 -3.015625 C 2.328125 -3.085938 2.375 -3.164062 2.40625 -3.25 C 2.445312 -3.332031 2.472656 -3.429688 2.484375 -3.546875 L 2.53125 -3.578125 L 2.921875 -3.484375 C 2.898438 -3.328125 2.847656 -3.191406 2.765625 -3.078125 C 2.691406 -2.972656 2.585938 -2.882812 2.453125 -2.8125 L 2.453125 -2.75 C 2.546875 -2.664062 2.617188 -2.570312 2.671875 -2.46875 C 2.722656 -2.363281 2.75 -2.238281 2.75 -2.09375 C 2.75 -1.894531 2.695312 -1.71875 2.59375 -1.5625 C 2.5 -1.40625 2.363281 -1.28125 2.1875 -1.1875 C 2.019531 -1.101562 1.828125 -1.0625 1.609375 -1.0625 C 1.578125 -1.0625 1.53125 -1.0625 1.46875 -1.0625 C 1.382812 -1.070312 1.328125 -1.078125 1.296875 -1.078125 C 1.203125 -1.078125 1.125 -1.050781 1.0625 -1 C 1 -0.945312 0.96875 -0.878906 0.96875 -0.796875 C 0.96875 -0.703125 1 -0.628906 1.0625 -0.578125 C 1.125 -0.535156 1.226562 -0.507812 1.375 -0.5 L 2.125 -0.484375 C 2.445312 -0.472656 2.679688 -0.394531 2.828125 -0.25 C 2.984375 -0.113281 3.0625 0.078125 3.0625 0.328125 C 3.0625 0.515625 3.007812 0.679688 2.90625 0.828125 C 2.8125 0.984375 2.65625 1.101562 2.4375 1.1875 C 2.21875 1.28125 1.941406 1.328125 1.609375 1.328125 Z M 1.609375 -1.453125 C 1.828125 -1.453125 1.992188 -1.507812 2.109375 -1.625 C 2.234375 -1.75 2.296875 -1.914062 2.296875 -2.125 C 2.296875 -2.332031 2.234375 -2.492188 2.109375 -2.609375 C 1.992188 -2.734375 1.828125 -2.796875 1.609375 -2.796875 C 1.378906 -2.796875 1.207031 -2.734375 1.09375 -2.609375 C 0.976562 -2.492188 0.921875 -2.332031 0.921875 -2.125 C 0.921875 -1.90625 0.976562 -1.738281 1.09375 -1.625 C 1.207031 -1.507812 1.378906 -1.453125 1.609375 -1.453125 Z M 1.609375 0.9375 C 1.835938 0.9375 2.023438 0.910156 2.171875 0.859375 C 2.316406 0.804688 2.421875 0.738281 2.484375 0.65625 C 2.554688 0.570312 2.59375 0.476562 2.59375 0.375 C 2.59375 0.28125 2.570312 0.203125 2.53125 0.140625 C 2.5 0.0859375 2.441406 0.046875 2.359375 0.015625 C 2.285156 -0.015625 2.179688 -0.03125 2.046875 -0.03125 L 1.34375 -0.078125 L 1.25 -0.078125 C 0.863281 -0.0664062 0.671875 0.0859375 0.671875 0.390625 C 0.671875 0.753906 0.984375 0.9375 1.609375 0.9375 Z M 1.609375 0.9375 "/></g></g></g><g fill="#38b6ff" fill-opacity="1"><g transform="translate(318.952979, 170.479357)"><g><path d="M 0.546875 0 L 0.546875 -3.125 L 0.984375 -3.125 L 0.984375 -2.640625 L 1.046875 -2.625 C 1.191406 -2.976562 1.46875 -3.15625 1.875 -3.15625 C 2.082031 -3.15625 2.238281 -3.117188 2.34375 -3.046875 L 2.234375 -2.65625 L 2.171875 -2.640625 C 2.054688 -2.703125 1.925781 -2.734375 1.78125 -2.734375 C 1.53125 -2.734375 1.335938 -2.640625 1.203125 -2.453125 C 1.066406 -2.265625 1 -1.957031 1 -1.53125 L 1 0 Z M 0.546875 0 "/></g></g></g><g fill="#38b6ff" fill-opacity="1"><g transform="translate(321.368448, 170.479357)"><g><path d="M 1.296875 0.0625 C 0.984375 0.0625 0.738281 -0.015625 0.5625 -0.171875 C 0.394531 -0.335938 0.3125 -0.570312 0.3125 -0.875 C 0.3125 -1.0625 0.347656 -1.21875 0.421875 -1.34375 C 0.503906 -1.46875 0.625 -1.570312 0.78125 -1.65625 C 0.9375 -1.738281 1.144531 -1.800781 1.40625 -1.84375 C 1.632812 -1.875 1.804688 -1.910156 1.921875 -1.953125 C 2.046875 -2.003906 2.128906 -2.0625 2.171875 -2.125 C 2.210938 -2.1875 2.234375 -2.257812 2.234375 -2.34375 C 2.234375 -2.488281 2.179688 -2.597656 2.078125 -2.671875 C 1.984375 -2.742188 1.828125 -2.78125 1.609375 -2.78125 C 1.410156 -2.78125 1.238281 -2.738281 1.09375 -2.65625 C 0.945312 -2.582031 0.8125 -2.46875 0.6875 -2.3125 L 0.640625 -2.3125 L 0.40625 -2.640625 C 0.539062 -2.804688 0.707031 -2.9375 0.90625 -3.03125 C 1.113281 -3.132812 1.347656 -3.1875 1.609375 -3.1875 C 1.984375 -3.1875 2.253906 -3.101562 2.421875 -2.9375 C 2.597656 -2.78125 2.6875 -2.5625 2.6875 -2.28125 L 2.6875 -0.609375 C 2.6875 -0.441406 2.757812 -0.359375 2.90625 -0.359375 C 2.957031 -0.359375 3.003906 -0.363281 3.046875 -0.375 L 3.09375 -0.375 L 3.140625 -0.046875 C 3.109375 -0.0234375 3.0625 -0.0078125 3 0 C 2.945312 0.0078125 2.894531 0.015625 2.84375 0.015625 C 2.664062 0.015625 2.53125 -0.0195312 2.4375 -0.09375 C 2.351562 -0.164062 2.300781 -0.273438 2.28125 -0.421875 L 2.21875 -0.4375 C 2.132812 -0.269531 2.015625 -0.144531 1.859375 -0.0625 C 1.710938 0.0195312 1.523438 0.0625 1.296875 0.0625 Z M 1.390625 -0.3125 C 1.566406 -0.3125 1.71875 -0.347656 1.84375 -0.421875 C 1.96875 -0.503906 2.0625 -0.617188 2.125 -0.765625 C 2.195312 -0.910156 2.234375 -1.082031 2.234375 -1.28125 L 2.234375 -1.671875 L 2.1875 -1.6875 C 2.113281 -1.632812 2.023438 -1.59375 1.921875 -1.5625 C 1.828125 -1.53125 1.691406 -1.5 1.515625 -1.46875 C 1.328125 -1.445312 1.179688 -1.410156 1.078125 -1.359375 C 0.972656 -1.304688 0.894531 -1.238281 0.84375 -1.15625 C 0.800781 -1.082031 0.78125 -0.988281 0.78125 -0.875 C 0.78125 -0.6875 0.832031 -0.546875 0.9375 -0.453125 C 1.050781 -0.359375 1.203125 -0.3125 1.390625 -0.3125 Z M 1.390625 -0.3125 "/></g></g></g><g fill="#38b6ff" fill-opacity="1"><g transform="translate(324.603251, 170.479357)"><g><path d="M 0.546875 1.265625 L 0.546875 -3.125 L 1 -3.125 L 1 -2.65625 L 1.0625 -2.65625 C 1.300781 -3.007812 1.644531 -3.1875 2.09375 -3.1875 C 2.351562 -3.1875 2.578125 -3.125 2.765625 -3 C 2.960938 -2.882812 3.113281 -2.707031 3.21875 -2.46875 C 3.332031 -2.226562 3.390625 -1.925781 3.390625 -1.5625 C 3.390625 -1.207031 3.332031 -0.90625 3.21875 -0.65625 C 3.101562 -0.414062 2.945312 -0.234375 2.75 -0.109375 C 2.550781 0.00390625 2.320312 0.0625 2.0625 0.0625 C 1.84375 0.0625 1.648438 0.0234375 1.484375 -0.046875 C 1.328125 -0.117188 1.1875 -0.242188 1.0625 -0.421875 L 1 -0.40625 L 1 1.265625 Z M 1.953125 -0.359375 C 2.585938 -0.359375 2.90625 -0.757812 2.90625 -1.5625 C 2.90625 -2.375 2.585938 -2.78125 1.953125 -2.78125 C 1.765625 -2.78125 1.597656 -2.734375 1.453125 -2.640625 C 1.316406 -2.554688 1.207031 -2.425781 1.125 -2.25 C 1.039062 -2.070312 1 -1.84375 1 -1.5625 C 1 -1.289062 1.039062 -1.0625 1.125 -0.875 C 1.207031 -0.695312 1.316406 -0.566406 1.453125 -0.484375 C 1.597656 -0.398438 1.765625 -0.359375 1.953125 -0.359375 Z M 1.953125 -0.359375 "/></g></g></g><g fill="#38b6ff" fill-opacity="1"><g transform="translate(328.334186, 170.479357)"><g><path d="M 0.546875 0 L 0.546875 -4.390625 L 1 -4.390625 L 1 -2.6875 L 1.0625 -2.671875 C 1.289062 -3.015625 1.613281 -3.1875 2.03125 -3.1875 C 2.40625 -3.1875 2.675781 -3.085938 2.84375 -2.890625 C 3.019531 -2.703125 3.109375 -2.410156 3.109375 -2.015625 L 3.109375 0 L 2.640625 0 L 2.640625 -2 C 2.640625 -2.1875 2.613281 -2.335938 2.5625 -2.453125 C 2.519531 -2.566406 2.445312 -2.648438 2.34375 -2.703125 C 2.25 -2.753906 2.117188 -2.78125 1.953125 -2.78125 C 1.671875 -2.78125 1.441406 -2.6875 1.265625 -2.5 C 1.085938 -2.320312 1 -2.023438 1 -1.609375 L 1 0 Z M 0.546875 0 "/></g></g></g><g fill="#38b6ff" fill-opacity="1"><g transform="translate(331.934709, 170.479357)"><g/></g></g><g fill="#38b6ff" fill-opacity="1"><g transform="translate(333.357908, 170.479357)"><g><path d="M 2.125 -0.5 L 2.265625 -0.171875 C 2.191406 -0.0859375 2.09375 -0.03125 1.96875 0 C 1.851562 0.0390625 1.722656 0.0625 1.578125 0.0625 C 0.984375 0.0625 0.6875 -0.238281 0.6875 -0.84375 L 0.6875 -2.75 L 0.140625 -2.75 L 0.140625 -3.140625 L 0.6875 -3.140625 L 0.6875 -3.796875 L 1.15625 -3.875 L 1.15625 -3.140625 L 2.15625 -3.140625 L 2.15625 -2.75 L 1.15625 -2.75 L 1.15625 -0.890625 C 1.15625 -0.535156 1.3125 -0.359375 1.625 -0.359375 C 1.789062 -0.359375 1.9375 -0.40625 2.0625 -0.5 Z M 2.125 -0.5 "/></g></g></g><g fill="#38b6ff" fill-opacity="1"><g transform="translate(335.739356, 170.479357)"><g><path d="M 2.984375 -1.453125 L 0.828125 -1.453125 C 0.835938 -1.078125 0.925781 -0.800781 1.09375 -0.625 C 1.269531 -0.445312 1.503906 -0.359375 1.796875 -0.359375 C 2.023438 -0.359375 2.207031 -0.394531 2.34375 -0.46875 C 2.476562 -0.550781 2.582031 -0.675781 2.65625 -0.84375 L 2.71875 -0.84375 L 3.015625 -0.671875 C 2.929688 -0.441406 2.785156 -0.257812 2.578125 -0.125 C 2.378906 0 2.117188 0.0625 1.796875 0.0625 C 1.492188 0.0625 1.234375 0.00390625 1.015625 -0.109375 C 0.804688 -0.234375 0.640625 -0.414062 0.515625 -0.65625 C 0.398438 -0.90625 0.34375 -1.207031 0.34375 -1.5625 C 0.34375 -1.914062 0.40625 -2.210938 0.53125 -2.453125 C 0.65625 -2.703125 0.820312 -2.882812 1.03125 -3 C 1.25 -3.125 1.5 -3.1875 1.78125 -3.1875 C 2.175781 -3.1875 2.484375 -3.070312 2.703125 -2.84375 C 2.929688 -2.625 3.046875 -2.289062 3.046875 -1.84375 C 3.046875 -1.664062 3.046875 -1.550781 3.046875 -1.5 Z M 2.59375 -1.84375 C 2.582031 -2.175781 2.507812 -2.414062 2.375 -2.5625 C 2.238281 -2.71875 2.039062 -2.796875 1.78125 -2.796875 C 1.5 -2.796875 1.28125 -2.71875 1.125 -2.5625 C 0.96875 -2.414062 0.875 -2.175781 0.84375 -1.84375 Z M 2.59375 -1.84375 "/></g></g></g><g fill="#38b6ff" fill-opacity="1"><g transform="translate(339.073384, 170.479357)"><g><path d="M 0.65625 0 L 0.140625 0 L 1.109375 -1.625 L 0.1875 -3.125 L 0.71875 -3.125 L 1.4375 -1.921875 L 1.5 -1.921875 L 2.234375 -3.125 L 2.734375 -3.125 L 1.828125 -1.625 L 2.78125 0 L 2.25 0 L 1.484375 -1.328125 L 1.421875 -1.328125 Z M 0.65625 0 "/></g></g></g><g fill="#38b6ff" fill-opacity="1"><g transform="translate(341.987823, 170.479357)"><g><path d="M 2.125 -0.5 L 2.265625 -0.171875 C 2.191406 -0.0859375 2.09375 -0.03125 1.96875 0 C 1.851562 0.0390625 1.722656 0.0625 1.578125 0.0625 C 0.984375 0.0625 0.6875 -0.238281 0.6875 -0.84375 L 0.6875 -2.75 L 0.140625 -2.75 L 0.140625 -3.140625 L 0.6875 -3.140625 L 0.6875 -3.796875 L 1.15625 -3.875 L 1.15625 -3.140625 L 2.15625 -3.140625 L 2.15625 -2.75 L 1.15625 -2.75 L 1.15625 -0.890625 C 1.15625 -0.535156 1.3125 -0.359375 1.625 -0.359375 C 1.789062 -0.359375 1.9375 -0.40625 2.0625 -0.5 Z M 2.125 -0.5 "/></g></g></g></svg>